<svg version="1" xmlns="http://www.w3.org/2000/svg" width="1365.333" height="1365.333" viewBox="0 0 1024.000000 1024.000000"><path d="M86.5 1.5C71 3.9 58.6 8.8 45.7 17.4 25.2 31 10.5 51.4 3.3 76.2L.6 85.5l-.4 70.9c-.3 67.8-.2 70.8 1.5 70.1 1-.4 8.7-2.5 17.2-4.6 40.7-10.4 90.6-17.1 148.6-20 30.6-1.6 36.7-1.1 45 3.1 15.1 7.7 19 19 15 43.5-2.9 18.1-8.5 33.1-16.1 43.5-2.8 4-3.5 6.2-5.4 17.5-4.8 29.8-10.8 54-26 105.6C145.9 530.2 136.7 563 126.5 606c-17 71.4-25.7 128.1-27.1 175.5-.3 11.2-1.2 21.5-2 25-3.5 14.4-16 25.9-35.4 32.5-13.5 4.5-37 8-54.7 8H0v40.2c0 30.1.4 42.7 1.5 49.8 6.5 43 38.8 76.4 82 85.1 5.9 1.2 70.8 1.4 428.5 1.4 458.7 0 426.7.4 443.3-5.6 32.8-11.8 56.1-37.4 65.5-71.7l2.6-9.7.4-56.7.3-56.7-11.8 4.9c-40.3 16.6-88.8 25-145.1 25-49.4 0-94.7-7.7-151.2-25.6-55.6-17.7-90.3-34.8-118-58-17.4-14.6-26.5-28.5-27.7-42.2-.5-5.9-.2-7.7 1.5-11.4 1.2-2.4 3.6-5.2 5.4-6.3 6.4-3.8 24.7-2 56.7 5.6 6.8 1.6 12.9 2.9 13.7 2.9 1.1 0 1.4-2.3 1.4-11.4 0-36 6.3-86.8 16.5-133.2 23-104.6 53-186.8 85-232.4 18-25.7 37.9-39.9 55.7-40 3.9 0 5 .5 7.1 3 2.9 3.4 5.3 13.1 6.2 25.5.8 10.9-1.1 47.5-3.5 66.1-3.5 27.4-17.4 98.6-31.5 161.9-4 18.1-8.1 37-8.9 42-.9 4.9-3.6 39.6-6.1 77-2.4 37.4-4.7 70.3-5 73.2l-.5 5.1 14.8 3.5c57.6 13.7 96.5 13.7 132.9.1 19-7.1 33.8-16 46.5-28.2 16.5-15.7 26.7-36 30.3-59.9 3.9-25.7.2-72.8-7.7-98-5.4-17.4-17.4-38.1-28-48l-3.4-3.3-7.4 1.6c-4.1.8-15 1.8-24.2 2.1-36.2 1.3-64.5-5.8-77-19.3-5.8-6.3-7.3-11-7.3-22.4 0-9.1.3-11.1 2.3-15 8.3-15.9 27.7-23.8 64-26 16.5-.9 34.2 0 45.2 2.5l6.5 1.4 3.3-3.7c13.5-15.2 20.8-33.9 24.7-63 1.1-8.7.6-34.7-1-43.4-9.3-53.3-53.8-79.7-134.5-79.8-38.7 0-77.8 7.3-113 21.1-5.8 2.3-25.2 11.3-43.1 20-35.3 17.2-42.9 19.9-56 20-18.1.2-21.2-8.5-9.6-27.6 21.2-34.7 64.1-69.2 113.4-91.1 43.9-19.4 93.9-28.7 145.8-27 56.2 1.9 99.4 9.7 133.8 24.1 4.5 1.9 8.3 3.5 8.4 3.5.8 0 .1-98.7-.7-106.5-2.7-25.3-13.4-47.3-31.4-64.2-13.8-13.1-29.2-21.4-48.1-26C936.9.6 910.4.5 515.5.4 178.7.2 92.9.4 86.5 1.5zm407 173c18.8 6.7 26.5 24.4 26.5 61.4 0 22.6-3.3 40.7-12.1 65.8-25.5 72.6-82.8 153.2-144.2 202.8-13.1 10.5-29.2 21.8-40.5 28.5-4 2.3-7.5 4.6-7.8 5.1-.3.5 1.3 4.8 3.4 9.6 8.9 19.8 13.8 35.3 25.7 81.8 12 46.7 18.7 67.9 26.5 83.5 8 15.8 15.3 22 26.3 22 17.6 0 36.8-14.6 92.2-70.4 19.9-20.1 34.9-34.4 37.8-36.1 4.4-2.5 5.2-2.7 8.7-1.6 7.1 2.1 10.6 10.3 12 28.1 1.1 13.4.2 22.2-3.6 34-5.1 16.2-18.1 39-32.8 57.5-11.9 14.9-35.4 36.8-52.6 49-18.3 13-44.9 26.6-64 32.9-18.5 6-30.5 8.1-47 8.1-28.6-.1-46.3-6.1-62.3-21.3-11.6-11.1-19.1-24-25.1-43.2-7.2-23.2-11.3-45.4-18.2-100.5-4.7-37.7-7.2-55.3-10.5-74.5-2.5-14.1-6.9-34-7.9-35.9-.4-.8-4.5-2.5-9-3.8-16.7-4.8-34.4-16.2-41.2-26.4-5.1-7.7-6.8-13.6-6.8-23.2 0-17.6 9.5-27.5 32.3-33.7 20.6-5.7 45.3-3.8 61.9 4.6l4.7 2.4 8.2-9.3c15.6-17.6 36.1-46.7 51.1-72.5 9-15.6 24.4-46.2 34.8-69.2 9.9-22 19.8-45.3 47.5-112.5 15.8-38.5 16.7-39.7 29.1-42.6 14-3.1 48.3-3.4 56.9-.4z"/><path d="M59.9 302.1c-14.8 1.1-35.3 4.3-48.6 7.4L0 312.2l.1 126.6v126.7L7.6 538c25.3-93.6 49.3-166.6 72.1-219.5 3.6-8.3 6.7-15.6 7-16.3.6-1.4-9.3-1.5-26.8-.1z"/></svg>